<svg id="Icon_ionic-ios-notifications-outline" data-name="Icon ionic-ios-notifications-outline" xmlns="http://www.w3.org/2000/svg" width="20.706" height="25.917" viewBox="0 0 20.706 25.917">
  <path id="Path_1" data-name="Path 1" d="M19.923,28.336A.839.839,0,0,0,19.1,29a1.623,1.623,0,0,1-.324.706,1.224,1.224,0,0,1-1.043.382,1.245,1.245,0,0,1-1.043-.382A1.623,1.623,0,0,1,16.367,29a.839.839,0,0,0-.823-.661h0a.845.845,0,0,0-.823,1.03,2.894,2.894,0,0,0,3.012,2.4,2.889,2.889,0,0,0,3.012-2.4.848.848,0,0,0-.823-1.03Z" transform="translate(-7.399 -5.852)" fill="#fff"/>
  <path id="Path_2" data-name="Path 2" d="M27.221,23.123c-1-1.315-2.96-2.086-2.96-7.974,0-6.044-2.669-8.473-5.156-9.056-.233-.058-.4-.136-.4-.382V5.524A1.589,1.589,0,0,0,17.148,3.93H17.11a1.589,1.589,0,0,0-1.555,1.593v.188c0,.24-.168.324-.4.382C12.659,6.683,10,9.106,10,15.15c0,5.888-1.963,6.652-2.96,7.974a1.286,1.286,0,0,0,1.03,2.06H26.21A1.287,1.287,0,0,0,27.221,23.123Zm-2.526.376H9.589a.284.284,0,0,1-.214-.473,7.847,7.847,0,0,0,1.36-2.163,14.679,14.679,0,0,0,.926-5.713,9.934,9.934,0,0,1,1.354-5.622,4.156,4.156,0,0,1,2.507-1.788,2.27,2.27,0,0,0,1.2-.68.512.512,0,0,1,.771-.013,2.347,2.347,0,0,0,1.218.693,4.156,4.156,0,0,1,2.507,1.788,9.934,9.934,0,0,1,1.354,5.622,14.679,14.679,0,0,0,.926,5.713,7.937,7.937,0,0,0,1.393,2.2A.268.268,0,0,1,24.695,23.5Z" transform="translate(-6.775 -3.93)" fill="#fff"/>
</svg>
