<svg xmlns="http://www.w3.org/2000/svg" width="23" height="14.786" viewBox="0 0 23 14.786">
  <path id="Icon_ionic-md-people" data-name="Icon ionic-md-people" d="M17.932,14.036a3.081,3.081,0,1,0-3.136-3.08A3.118,3.118,0,0,0,17.932,14.036Zm-8.364,0a3.081,3.081,0,1,0-3.136-3.08A3.118,3.118,0,0,0,9.568,14.036Zm0,2.259c-2.457,0-7.318,1.181-7.318,3.594v2.772H17.036V19.888C17.036,17.475,12.025,16.295,9.568,16.295Zm8.364.565a5.58,5.58,0,0,0-.9.051,3.061,3.061,0,0,1,1.643,2.978v2.772H25.25V19.888C25.25,17.475,20.389,16.86,17.932,16.86Z" transform="translate(-2.25 -7.875)" fill="#fff"/>
</svg>
