<svg xmlns="http://www.w3.org/2000/svg" width="18.931" height="18.931" viewBox="0 0 18.931 18.931">
  <path id="Icon_metro-cross" data-name="Icon metro-cross" d="M21.329,17.136h0l-5.743-5.743L21.328,5.65h0a.593.593,0,0,0,0-.836L18.616,2.1a.593.593,0,0,0-.836,0h0L12.036,7.844,6.293,2.1h0a.593.593,0,0,0-.836,0L2.744,4.814a.593.593,0,0,0,0,.836h0l5.743,5.743L2.744,17.136h0a.593.593,0,0,0,0,.836l2.713,2.713a.593.593,0,0,0,.836,0h0l5.743-5.743,5.743,5.743h0a.593.593,0,0,0,.836,0l2.713-2.713a.593.593,0,0,0,0-.836Z" transform="translate(-2.571 -1.928)"/>
</svg>
