<svg xmlns="http://www.w3.org/2000/svg" width="23" height="23" viewBox="0 0 23 23">
  <g id="Icon_ionic-ios-add-circle-outline" data-name="Icon ionic-ios-add-circle-outline" transform="translate(-3.375 -3.375)">
    <path id="Path_14" data-name="Path 14" d="M21.4,15.515H17.285V11.4a.885.885,0,1,0-1.769,0v4.119H11.4a.847.847,0,0,0-.885.885.856.856,0,0,0,.885.885h4.119V21.4a.857.857,0,0,0,.885.885.88.88,0,0,0,.885-.885V17.285H21.4a.885.885,0,1,0,0-1.769Z" transform="translate(-1.525 -1.525)" fill="#fff"/>
    <path id="Path_15" data-name="Path 15" d="M14.875,4.923A9.948,9.948,0,1,1,7.837,7.837a9.886,9.886,0,0,1,7.038-2.914m0-1.548a11.5,11.5,0,1,0,11.5,11.5,11.5,11.5,0,0,0-11.5-11.5Z" fill="#fff"/>
  </g>
</svg>
