<svg xmlns="http://www.w3.org/2000/svg" width="23" height="17.25" viewBox="0 0 23 17.25">
  <path id="Icon_awesome-car" data-name="Icon awesome-car" d="M22.461,9.531H19.771l-.748-1.869A5.006,5.006,0,0,0,14.353,4.5H8.648A5.007,5.007,0,0,0,3.976,7.663L3.229,9.531H.54a.539.539,0,0,0-.523.67l.27,1.078a.539.539,0,0,0,.523.408h.9a2.855,2.855,0,0,0-.992,2.156V16a2.852,2.852,0,0,0,.719,1.884v2.429A1.438,1.438,0,0,0,2.875,21.75H4.313A1.438,1.438,0,0,0,5.75,20.313V18.875h11.5v1.438a1.438,1.438,0,0,0,1.438,1.438h1.438a1.438,1.438,0,0,0,1.438-1.438V17.884A2.85,2.85,0,0,0,22.281,16V13.844a2.856,2.856,0,0,0-.991-2.156h.9a.539.539,0,0,0,.523-.408l.27-1.078a.539.539,0,0,0-.523-.67ZM6.645,8.73a2.156,2.156,0,0,1,2-1.355h5.705a2.156,2.156,0,0,1,2,1.355l.9,2.238H5.75l.9-2.238ZM4.313,15.991a1.356,1.356,0,0,1-1.438-1.433,1.356,1.356,0,0,1,1.438-1.433,2.766,2.766,0,0,1,2.156,2.15C6.469,16.134,5.175,15.991,4.313,15.991Zm14.375,0c-.863,0-2.156.143-2.156-.717a2.766,2.766,0,0,1,2.156-2.15,1.356,1.356,0,0,1,1.438,1.433,1.356,1.356,0,0,1-1.438,1.433Z" transform="translate(0 -4.5)" fill="#fff"/>
</svg>
